<svg width="1320" height="319" viewBox="0 0 1320 319" fill="none" xmlns="http://www.w3.org/2000/svg">
<mask id="mask0_501_1901" style="mask-type:alpha" maskUnits="userSpaceOnUse" x="0" y="0" width="1320" height="319">
<rect width="1320" height="319" fill="white" fill-opacity="0.3"/>
</mask>
<g mask="url(#mask0_501_1901)">
<rect width="0.669378" height="519.213" rx="0.334689" transform="matrix(0.982904 0.184121 -0.182742 0.983161 0.140503 -211.982)" fill="white" fill-opacity="0.23"/>
<rect width="0.669378" height="519.213" rx="0.334689" transform="matrix(0.982904 0.184121 -0.182742 0.983161 3.90021 -211.277)" fill="white" fill-opacity="0.23"/>
<rect width="0.669378" height="519.213" rx="0.334689" transform="matrix(0.982904 0.184121 -0.182742 0.983161 26.4549 -207.052)" fill="white" fill-opacity="0.23"/>
<rect width="0.669378" height="519.213" rx="0.334689" transform="matrix(0.982904 0.184121 -0.182742 0.983161 7.66193 -210.573)" fill="white" fill-opacity="0.23"/>
<rect width="0.669378" height="519.213" rx="0.334689" transform="matrix(0.982904 0.184121 -0.182742 0.983161 30.2166 -206.348)" fill="white" fill-opacity="0.23"/>
<rect width="0.669378" height="519.213" rx="0.334689" transform="matrix(0.982904 0.184121 -0.182742 0.983161 11.4216 -209.869)" fill="white" fill-opacity="0.23"/>
<rect width="0.669378" height="519.213" rx="0.334689" transform="matrix(0.982904 0.184121 -0.182742 0.983161 33.9783 -205.643)" fill="white" fill-opacity="0.23"/>
<rect width="0.669378" height="519.213" rx="0.334689" transform="matrix(0.982904 0.184121 -0.182742 0.983161 15.1776 -209.165)" fill="white" fill-opacity="0.23"/>
<rect width="0.669378" height="519.213" rx="0.334689" transform="matrix(0.982904 0.184121 -0.182742 0.983161 37.7363 -204.939)" fill="white" fill-opacity="0.23"/>
<rect width="0.669378" height="519.213" rx="0.334689" transform="matrix(0.982904 0.184121 -0.182742 0.983161 18.9412 -208.46)" fill="white" fill-opacity="0.23"/>
<rect width="0.669378" height="519.213" rx="0.334689" transform="matrix(0.982904 0.184121 -0.182742 0.983161 41.494 -204.235)" fill="white" fill-opacity="0.23"/>
<rect width="0.669378" height="519.213" rx="0.334689" transform="matrix(0.982904 0.184121 -0.182742 0.983161 22.699 -207.756)" fill="white" fill-opacity="0.23"/>
<rect width="0.669378" height="519.213" rx="0.334689" transform="matrix(0.982904 0.184121 -0.182742 0.983161 45.2596 -203.531)" fill="white" fill-opacity="0.23"/>
<rect width="0.669378" height="519.213" rx="0.334689" transform="matrix(0.982904 0.184121 -0.182742 0.983161 49.0154 -202.826)" fill="white" fill-opacity="0.23"/>
<rect width="0.669378" height="519.213" rx="0.334689" transform="matrix(0.982904 0.184121 -0.182742 0.983161 71.574 -198.601)" fill="white" fill-opacity="0.23"/>
<rect width="0.669378" height="519.213" rx="0.334689" transform="matrix(0.982904 0.184121 -0.182742 0.983161 52.7752 -202.122)" fill="white" fill-opacity="0.23"/>
<rect width="0.669378" height="519.213" rx="0.334689" transform="matrix(0.982904 0.184121 -0.182742 0.983161 75.3338 -197.896)" fill="white" fill-opacity="0.23"/>
<rect width="0.669378" height="519.213" rx="0.334689" transform="matrix(0.982904 0.184121 -0.182742 0.983161 56.5369 -201.418)" fill="white" fill-opacity="0.23"/>
<rect width="0.669378" height="519.213" rx="0.334689" transform="matrix(0.982904 0.184121 -0.182742 0.983161 79.0897 -197.192)" fill="white" fill-opacity="0.23"/>
<rect width="0.669378" height="519.213" rx="0.334689" transform="matrix(0.982904 0.184121 -0.182742 0.983161 60.2946 -200.713)" fill="white" fill-opacity="0.23"/>
<rect width="0.669378" height="519.213" rx="0.334689" transform="matrix(0.982904 0.184121 -0.182742 0.983161 82.8553 -196.488)" fill="white" fill-opacity="0.23"/>
<rect width="0.669378" height="519.213" rx="0.334689" transform="matrix(0.982904 0.184121 -0.182742 0.983161 64.0545 -200.009)" fill="white" fill-opacity="0.23"/>
<rect width="0.669378" height="519.213" rx="0.334689" transform="matrix(0.982904 0.184121 -0.182742 0.983161 86.6132 -195.784)" fill="white" fill-opacity="0.23"/>
<rect width="0.669378" height="519.213" rx="0.334689" transform="matrix(0.982904 0.184121 -0.182742 0.983161 67.8182 -199.305)" fill="white" fill-opacity="0.23"/>
<rect width="0.669378" height="519.213" rx="0.334689" transform="matrix(0.982904 0.184121 -0.182742 0.983161 90.3709 -195.079)" fill="white" fill-opacity="0.23"/>
<rect width="0.669378" height="519.213" rx="0.334689" transform="matrix(0.982904 0.184121 -0.182742 0.983161 94.1326 -194.375)" fill="white" fill-opacity="0.23"/>
<rect width="0.669378" height="519.213" rx="0.334689" transform="matrix(0.982904 0.184121 -0.182742 0.983161 116.691 -190.15)" fill="white" fill-opacity="0.23"/>
<rect width="0.669378" height="519.213" rx="0.334689" transform="matrix(0.982904 0.184121 -0.182742 0.983161 97.8923 -193.671)" fill="white" fill-opacity="0.23"/>
<rect width="0.669378" height="519.213" rx="0.334689" transform="matrix(0.982904 0.184121 -0.182742 0.983161 120.449 -189.445)" fill="white" fill-opacity="0.23"/>
<rect width="0.669378" height="519.213" rx="0.334689" transform="matrix(0.982904 0.184121 -0.182742 0.983161 101.65 -192.967)" fill="white" fill-opacity="0.23"/>
<rect width="0.669378" height="519.213" rx="0.334689" transform="matrix(0.982904 0.184121 -0.182742 0.983161 124.209 -188.741)" fill="white" fill-opacity="0.23"/>
<rect width="0.669378" height="519.213" rx="0.334689" transform="matrix(0.982904 0.184121 -0.182742 0.983161 105.412 -192.262)" fill="white" fill-opacity="0.23"/>
<rect width="0.669378" height="519.213" rx="0.334689" transform="matrix(0.982904 0.184121 -0.182742 0.983161 127.965 -188.037)" fill="white" fill-opacity="0.23"/>
<rect width="0.669378" height="519.213" rx="0.334689" transform="matrix(0.982904 0.184121 -0.182742 0.983161 109.17 -191.558)" fill="white" fill-opacity="0.23"/>
<rect width="0.669378" height="519.213" rx="0.334689" transform="matrix(0.982904 0.184121 -0.182742 0.983161 131.728 -187.332)" fill="white" fill-opacity="0.23"/>
<rect width="0.669378" height="519.213" rx="0.334689" transform="matrix(0.982904 0.184121 -0.182742 0.983161 112.928 -190.854)" fill="white" fill-opacity="0.23"/>
<rect width="0.669378" height="519.213" rx="0.334689" transform="matrix(0.982904 0.184121 -0.182742 0.983161 135.488 -186.628)" fill="white" fill-opacity="0.23"/>
<rect width="0.669378" height="519.213" rx="0.334689" transform="matrix(0.982904 0.184121 -0.182742 0.983161 139.246 -185.924)" fill="white" fill-opacity="0.23"/>
<rect width="0.669378" height="519.213" rx="0.334689" transform="matrix(0.982904 0.184121 -0.182742 0.983161 161.805 -181.698)" fill="white" fill-opacity="0.23"/>
<rect width="0.669378" height="519.213" rx="0.334689" transform="matrix(0.982904 0.184121 -0.182742 0.983161 143.008 -185.22)" fill="white" fill-opacity="0.23"/>
<rect width="0.669378" height="519.213" rx="0.334689" transform="matrix(0.982904 0.184121 -0.182742 0.983161 165.56 -180.994)" fill="white" fill-opacity="0.23"/>
<rect width="0.669378" height="519.213" rx="0.334689" transform="matrix(0.982904 0.184121 -0.182742 0.983161 146.767 -184.516)" fill="white" fill-opacity="0.23"/>
<rect width="0.669378" height="519.213" rx="0.334689" transform="matrix(0.982904 0.184121 -0.182742 0.983161 169.326 -180.29)" fill="white" fill-opacity="0.23"/>
<rect width="0.669378" height="519.213" rx="0.334689" transform="matrix(0.982904 0.184121 -0.182742 0.983161 150.525 -183.811)" fill="white" fill-opacity="0.23"/>
<rect width="0.669378" height="519.213" rx="0.334689" transform="matrix(0.982904 0.184121 -0.182742 0.983161 173.084 -179.586)" fill="white" fill-opacity="0.23"/>
<rect width="0.669378" height="519.213" rx="0.334689" transform="matrix(0.982904 0.184121 -0.182742 0.983161 154.289 -183.107)" fill="white" fill-opacity="0.23"/>
<rect width="0.669378" height="519.213" rx="0.334689" transform="matrix(0.982904 0.184121 -0.182742 0.983161 176.842 -178.881)" fill="white" fill-opacity="0.23"/>
<rect width="0.669378" height="519.213" rx="0.334689" transform="matrix(0.982904 0.184121 -0.182742 0.983161 158.047 -182.403)" fill="white" fill-opacity="0.23"/>
<rect width="0.669378" height="519.213" rx="0.334689" transform="matrix(0.982904 0.184121 -0.182742 0.983161 180.603 -178.177)" fill="white" fill-opacity="0.23"/>
<rect width="0.669378" height="519.213" rx="0.334689" transform="matrix(0.982904 0.184121 -0.182742 0.983161 184.365 -177.473)" fill="white" fill-opacity="0.23"/>
<rect width="0.669378" height="519.213" rx="0.334689" transform="matrix(0.982904 0.184121 -0.182742 0.983161 206.922 -173.247)" fill="white" fill-opacity="0.23"/>
<rect width="0.669378" height="519.213" rx="0.334689" transform="matrix(0.982904 0.184121 -0.182742 0.983161 188.121 -176.769)" fill="white" fill-opacity="0.23"/>
<rect width="0.669378" height="519.213" rx="0.334689" transform="matrix(0.982904 0.184121 -0.182742 0.983161 210.68 -172.543)" fill="white" fill-opacity="0.23"/>
<rect width="0.669378" height="519.213" rx="0.334689" transform="matrix(0.982904 0.184121 -0.182742 0.983161 191.883 -176.064)" fill="white" fill-opacity="0.23"/>
<rect width="0.669378" height="519.213" rx="0.334689" transform="matrix(0.982904 0.184121 -0.182742 0.983161 214.435 -171.839)" fill="white" fill-opacity="0.23"/>
<rect width="0.669378" height="519.213" rx="0.334689" transform="matrix(0.982904 0.184121 -0.182742 0.983161 195.642 -175.36)" fill="white" fill-opacity="0.23"/>
<rect width="0.669378" height="519.213" rx="0.334689" transform="matrix(0.982904 0.184121 -0.182742 0.983161 218.201 -171.134)" fill="white" fill-opacity="0.23"/>
<rect width="0.669378" height="519.213" rx="0.334689" transform="matrix(0.982904 0.184121 -0.182742 0.983161 199.398 -174.656)" fill="white" fill-opacity="0.23"/>
<rect width="0.669378" height="519.213" rx="0.334689" transform="matrix(0.982904 0.184121 -0.182742 0.983161 221.959 -170.43)" fill="white" fill-opacity="0.23"/>
<rect width="0.669378" height="519.213" rx="0.334689" transform="matrix(0.982904 0.184121 -0.182742 0.983161 203.162 -173.952)" fill="white" fill-opacity="0.23"/>
<rect width="0.669378" height="519.213" rx="0.334689" transform="matrix(0.982904 0.184121 -0.182742 0.983161 225.717 -169.726)" fill="white" fill-opacity="0.23"/>
<rect width="0.669378" height="519.213" rx="0.334689" transform="matrix(0.982904 0.184121 -0.182742 0.983161 229.48 -169.022)" fill="white" fill-opacity="0.23"/>
<rect width="0.669378" height="519.213" rx="0.334689" transform="matrix(0.982904 0.184121 -0.182742 0.983161 252.031 -164.796)" fill="white" fill-opacity="0.23"/>
<rect width="0.669378" height="519.213" rx="0.334689" transform="matrix(0.982904 0.184121 -0.182742 0.983161 233.238 -168.317)" fill="white" fill-opacity="0.23"/>
<rect width="0.669378" height="519.213" rx="0.334689" transform="matrix(0.982904 0.184121 -0.182742 0.983161 255.799 -164.092)" fill="white" fill-opacity="0.23"/>
<rect width="0.669378" height="519.213" rx="0.334689" transform="matrix(0.982904 0.184121 -0.182742 0.983161 236.996 -167.613)" fill="white" fill-opacity="0.23"/>
<rect width="0.669378" height="519.213" rx="0.334689" transform="matrix(0.982904 0.184121 -0.182742 0.983161 259.555 -163.387)" fill="white" fill-opacity="0.23"/>
<rect width="0.669378" height="519.213" rx="0.334689" transform="matrix(0.982904 0.184121 -0.182742 0.983161 240.76 -166.909)" fill="white" fill-opacity="0.23"/>
<rect width="0.669378" height="519.213" rx="0.334689" transform="matrix(0.982904 0.184121 -0.182742 0.983161 263.312 -162.683)" fill="white" fill-opacity="0.23"/>
<rect width="0.669378" height="519.213" rx="0.334689" transform="matrix(0.982904 0.184121 -0.182742 0.983161 244.517 -166.204)" fill="white" fill-opacity="0.23"/>
<rect width="0.669378" height="519.213" rx="0.334689" transform="matrix(0.982904 0.184121 -0.182742 0.983161 267.076 -161.979)" fill="white" fill-opacity="0.23"/>
<rect width="0.669378" height="519.213" rx="0.334689" transform="matrix(0.982904 0.184121 -0.182742 0.983161 248.275 -165.5)" fill="white" fill-opacity="0.23"/>
<rect width="0.669378" height="519.213" rx="0.334689" transform="matrix(0.982904 0.184121 -0.182742 0.983161 270.834 -161.275)" fill="white" fill-opacity="0.23"/>
<rect width="0.669378" height="519.213" rx="0.334689" transform="matrix(0.982904 0.184121 -0.182742 0.983161 274.105 -160.662)" fill="white" fill-opacity="0.23"/>
<rect width="0.669378" height="519.213" rx="0.334689" transform="matrix(0.982904 0.184121 -0.182742 0.983161 296.664 -156.436)" fill="white" fill-opacity="0.23"/>
<rect width="0.669378" height="519.213" rx="0.334689" transform="matrix(0.982904 0.184121 -0.182742 0.983161 277.863 -159.958)" fill="white" fill-opacity="0.23"/>
<rect width="0.669378" height="519.213" rx="0.334689" transform="matrix(0.982904 0.184121 -0.182742 0.983161 300.424 -155.732)" fill="white" fill-opacity="0.23"/>
<rect width="0.669378" height="519.213" rx="0.334689" transform="matrix(0.982904 0.184121 -0.182742 0.983161 281.627 -159.253)" fill="white" fill-opacity="0.23"/>
<rect width="0.669378" height="519.213" rx="0.334689" transform="matrix(0.982904 0.184121 -0.182742 0.983161 304.179 -155.028)" fill="white" fill-opacity="0.23"/>
<rect width="0.669378" height="519.213" rx="0.334689" transform="matrix(0.982904 0.184121 -0.182742 0.983161 285.387 -158.549)" fill="white" fill-opacity="0.23"/>
<rect width="0.669378" height="519.213" rx="0.334689" transform="matrix(0.982904 0.184121 -0.182742 0.983161 307.945 -154.324)" fill="white" fill-opacity="0.23"/>
<rect width="0.669378" height="519.213" rx="0.334689" transform="matrix(0.982904 0.184121 -0.182742 0.983161 289.142 -157.845)" fill="white" fill-opacity="0.23"/>
<rect width="0.669378" height="519.213" rx="0.334689" transform="matrix(0.982904 0.184121 -0.182742 0.983161 311.701 -153.619)" fill="white" fill-opacity="0.23"/>
<rect width="0.669378" height="519.213" rx="0.334689" transform="matrix(0.982904 0.184121 -0.182742 0.983161 292.902 -157.141)" fill="white" fill-opacity="0.23"/>
<rect width="0.669378" height="519.213" rx="0.334689" transform="matrix(0.982904 0.184121 -0.182742 0.983161 315.459 -152.915)" fill="white" fill-opacity="0.23"/>
<rect width="0.669378" height="519.213" rx="0.334689" transform="matrix(0.982904 0.184121 -0.182742 0.983161 319.224 -152.211)" fill="white" fill-opacity="0.23"/>
<rect width="0.669378" height="519.213" rx="0.334689" transform="matrix(0.982904 0.184121 -0.182742 0.983161 341.777 -147.985)" fill="white" fill-opacity="0.23"/>
<rect width="0.669378" height="519.213" rx="0.334689" transform="matrix(0.982904 0.184121 -0.182742 0.983161 322.982 -151.506)" fill="white" fill-opacity="0.23"/>
<rect width="0.669378" height="519.213" rx="0.334689" transform="matrix(0.982904 0.184121 -0.182742 0.983161 345.541 -147.281)" fill="white" fill-opacity="0.23"/>
<rect width="0.669378" height="519.213" rx="0.334689" transform="matrix(0.982904 0.184121 -0.182742 0.983161 326.738 -150.802)" fill="white" fill-opacity="0.23"/>
<rect width="0.669378" height="519.213" rx="0.334689" transform="matrix(0.982904 0.184121 -0.182742 0.983161 349.297 -146.576)" fill="white" fill-opacity="0.23"/>
<rect width="0.669378" height="519.213" rx="0.334689" transform="matrix(0.982904 0.184121 -0.182742 0.983161 330.502 -150.098)" fill="white" fill-opacity="0.23"/>
<rect width="0.669378" height="519.213" rx="0.334689" transform="matrix(0.982904 0.184121 -0.182742 0.983161 353.058 -145.872)" fill="white" fill-opacity="0.23"/>
<rect width="0.669378" height="519.213" rx="0.334689" transform="matrix(0.982904 0.184121 -0.182742 0.983161 334.26 -149.394)" fill="white" fill-opacity="0.23"/>
<rect width="0.669378" height="519.213" rx="0.334689" transform="matrix(0.982904 0.184121 -0.182742 0.983161 356.82 -145.168)" fill="white" fill-opacity="0.23"/>
<rect width="0.669378" height="519.213" rx="0.334689" transform="matrix(0.982904 0.184121 -0.182742 0.983161 338.02 -148.689)" fill="white" fill-opacity="0.23"/>
<rect width="0.669378" height="519.213" rx="0.334689" transform="matrix(0.982904 0.184121 -0.182742 0.983161 360.576 -144.464)" fill="white" fill-opacity="0.23"/>
<rect width="0.669378" height="519.213" rx="0.334689" transform="matrix(0.982904 0.184121 -0.182742 0.983161 364.336 -143.759)" fill="white" fill-opacity="0.23"/>
<rect width="0.669378" height="519.213" rx="0.334689" transform="matrix(0.982904 0.184121 -0.182742 0.983161 386.893 -139.534)" fill="white" fill-opacity="0.23"/>
<rect width="0.669378" height="519.213" rx="0.334689" transform="matrix(0.982904 0.184121 -0.182742 0.983161 368.097 -143.055)" fill="white" fill-opacity="0.23"/>
<rect width="0.669378" height="519.213" rx="0.334689" transform="matrix(0.982904 0.184121 -0.182742 0.983161 390.652 -138.83)" fill="white" fill-opacity="0.23"/>
<rect width="0.669378" height="519.213" rx="0.334689" transform="matrix(0.982904 0.184121 -0.182742 0.983161 371.857 -142.351)" fill="white" fill-opacity="0.23"/>
<rect width="0.669378" height="519.213" rx="0.334689" transform="matrix(0.982904 0.184121 -0.182742 0.983161 394.416 -138.125)" fill="white" fill-opacity="0.23"/>
<rect width="0.669378" height="519.213" rx="0.334689" transform="matrix(0.982904 0.184121 -0.182742 0.983161 375.613 -141.647)" fill="white" fill-opacity="0.23"/>
<rect width="0.669378" height="519.213" rx="0.334689" transform="matrix(0.982904 0.184121 -0.182742 0.983161 398.172 -137.421)" fill="white" fill-opacity="0.23"/>
<rect width="0.669378" height="519.213" rx="0.334689" transform="matrix(0.982904 0.184121 -0.182742 0.983161 379.373 -140.943)" fill="white" fill-opacity="0.23"/>
<rect width="0.669378" height="519.213" rx="0.334689" transform="matrix(0.982904 0.184121 -0.182742 0.983161 401.931 -136.717)" fill="white" fill-opacity="0.23"/>
<rect width="0.669378" height="519.213" rx="0.334689" transform="matrix(0.982904 0.184121 -0.182742 0.983161 383.135 -140.238)" fill="white" fill-opacity="0.23"/>
<rect width="0.669378" height="519.213" rx="0.334689" transform="matrix(0.982904 0.184121 -0.182742 0.983161 405.695 -136.013)" fill="white" fill-opacity="0.23"/>
<rect width="0.669378" height="519.213" rx="0.334689" transform="matrix(0.982904 0.184121 -0.182742 0.983161 409.453 -135.308)" fill="white" fill-opacity="0.23"/>
<rect width="0.669378" height="519.213" rx="0.334689" transform="matrix(0.982904 0.184121 -0.182742 0.983161 432.012 -131.083)" fill="white" fill-opacity="0.23"/>
<rect width="0.669378" height="519.213" rx="0.334689" transform="matrix(0.982904 0.184121 -0.182742 0.983161 413.211 -134.604)" fill="white" fill-opacity="0.23"/>
<rect width="0.669378" height="519.213" rx="0.334689" transform="matrix(0.982904 0.184121 -0.182742 0.983161 435.769 -130.378)" fill="white" fill-opacity="0.23"/>
<rect width="0.669378" height="519.213" rx="0.334689" transform="matrix(0.982904 0.184121 -0.182742 0.983161 416.972 -133.9)" fill="white" fill-opacity="0.23"/>
<rect width="0.669378" height="519.213" rx="0.334689" transform="matrix(0.982904 0.184121 -0.182742 0.983161 439.529 -129.674)" fill="white" fill-opacity="0.23"/>
<rect width="0.669378" height="519.213" rx="0.334689" transform="matrix(0.982904 0.184121 -0.182742 0.983161 420.73 -133.195)" fill="white" fill-opacity="0.23"/>
<rect width="0.669378" height="519.213" rx="0.334689" transform="matrix(0.982904 0.184121 -0.182742 0.983161 443.291 -128.97)" fill="white" fill-opacity="0.23"/>
<rect width="0.669378" height="519.213" rx="0.334689" transform="matrix(0.982904 0.184121 -0.182742 0.983161 424.49 -132.491)" fill="white" fill-opacity="0.23"/>
<rect width="0.669378" height="519.213" rx="0.334689" transform="matrix(0.982904 0.184121 -0.182742 0.983161 447.05 -128.266)" fill="white" fill-opacity="0.23"/>
<rect width="0.669378" height="519.213" rx="0.334689" transform="matrix(0.982904 0.184121 -0.182742 0.983161 428.248 -131.787)" fill="white" fill-opacity="0.23"/>
<rect width="0.669378" height="519.213" rx="0.334689" transform="matrix(0.982904 0.184121 -0.182742 0.983161 450.806 -127.561)" fill="white" fill-opacity="0.23"/>
<rect width="0.669378" height="519.213" rx="0.334689" transform="matrix(0.982904 0.184121 -0.182742 0.983161 454.568 -126.857)" fill="white" fill-opacity="0.23"/>
<rect width="0.669378" height="519.213" rx="0.334689" transform="matrix(0.982904 0.184121 -0.182742 0.983161 477.123 -122.632)" fill="white" fill-opacity="0.23"/>
<rect width="0.669378" height="519.213" rx="0.334689" transform="matrix(0.982904 0.184121 -0.182742 0.983161 458.328 -126.153)" fill="white" fill-opacity="0.23"/>
<rect width="0.669378" height="519.213" rx="0.334689" transform="matrix(0.982904 0.184121 -0.182742 0.983161 480.887 -121.927)" fill="white" fill-opacity="0.23"/>
<rect width="0.669378" height="519.213" rx="0.334689" transform="matrix(0.982904 0.184121 -0.182742 0.983161 462.086 -125.449)" fill="white" fill-opacity="0.23"/>
<rect width="0.669378" height="519.213" rx="0.334689" transform="matrix(0.982904 0.184121 -0.182742 0.983161 484.644 -121.223)" fill="white" fill-opacity="0.23"/>
<rect width="0.669378" height="519.213" rx="0.334689" transform="matrix(0.982904 0.184121 -0.182742 0.983161 465.846 -124.744)" fill="white" fill-opacity="0.23"/>
<rect width="0.669378" height="519.213" rx="0.334689" transform="matrix(0.982904 0.184121 -0.182742 0.983161 488.402 -120.519)" fill="white" fill-opacity="0.23"/>
<rect width="0.669378" height="519.213" rx="0.334689" transform="matrix(0.982904 0.184121 -0.182742 0.983161 469.605 -124.04)" fill="white" fill-opacity="0.23"/>
<rect width="0.669378" height="519.213" rx="0.334689" transform="matrix(0.982904 0.184121 -0.182742 0.983161 492.166 -119.815)" fill="white" fill-opacity="0.23"/>
<rect width="0.669378" height="519.213" rx="0.334689" transform="matrix(0.982904 0.184121 -0.182742 0.983161 473.365 -123.336)" fill="white" fill-opacity="0.23"/>
<rect width="0.669378" height="519.213" rx="0.334689" transform="matrix(0.982904 0.184121 -0.182742 0.983161 495.925 -119.11)" fill="white" fill-opacity="0.23"/>
<rect width="0.669378" height="519.213" rx="0.334689" transform="matrix(0.982904 0.184121 -0.182742 0.983161 499.681 -118.406)" fill="white" fill-opacity="0.23"/>
<rect width="0.669378" height="519.213" rx="0.334689" transform="matrix(0.982904 0.184121 -0.182742 0.983161 522.24 -114.18)" fill="white" fill-opacity="0.23"/>
<rect width="0.669378" height="519.213" rx="0.334689" transform="matrix(0.982904 0.184121 -0.182742 0.983161 503.445 -117.702)" fill="white" fill-opacity="0.23"/>
<rect width="0.669378" height="519.213" rx="0.334689" transform="matrix(0.982904 0.184121 -0.182742 0.983161 525.996 -113.476)" fill="white" fill-opacity="0.23"/>
<rect width="0.669378" height="519.213" rx="0.334689" transform="matrix(0.982904 0.184121 -0.182742 0.983161 507.203 -116.997)" fill="white" fill-opacity="0.23"/>
<rect width="0.669378" height="519.213" rx="0.334689" transform="matrix(0.982904 0.184121 -0.182742 0.983161 529.762 -112.772)" fill="white" fill-opacity="0.23"/>
<rect width="0.669378" height="519.213" rx="0.334689" transform="matrix(0.982904 0.184121 -0.182742 0.983161 510.963 -116.293)" fill="white" fill-opacity="0.23"/>
<rect width="0.669378" height="519.213" rx="0.334689" transform="matrix(0.982904 0.184121 -0.182742 0.983161 533.519 -112.068)" fill="white" fill-opacity="0.23"/>
<rect width="0.669378" height="519.213" rx="0.334689" transform="matrix(0.982904 0.184121 -0.182742 0.983161 514.719 -115.589)" fill="white" fill-opacity="0.23"/>
<rect width="0.669378" height="519.213" rx="0.334689" transform="matrix(0.982904 0.184121 -0.182742 0.983161 537.277 -111.363)" fill="white" fill-opacity="0.23"/>
<rect width="0.669378" height="519.213" rx="0.334689" transform="matrix(0.982904 0.184121 -0.182742 0.983161 518.484 -114.885)" fill="white" fill-opacity="0.23"/>
<rect width="0.669378" height="519.213" rx="0.334689" transform="matrix(0.982904 0.184121 -0.182742 0.983161 541.041 -110.659)" fill="white" fill-opacity="0.23"/>
<rect width="0.669378" height="519.213" rx="0.334689" transform="matrix(0.982904 0.184121 -0.182742 0.983161 544.801 -109.955)" fill="white" fill-opacity="0.23"/>
<rect width="0.669378" height="519.213" rx="0.334689" transform="matrix(0.982904 0.184121 -0.182742 0.983161 567.359 -105.729)" fill="white" fill-opacity="0.23"/>
<rect width="0.669378" height="519.213" rx="0.334689" transform="matrix(0.982904 0.184121 -0.182742 0.983161 548.556 -109.251)" fill="white" fill-opacity="0.23"/>
<rect width="0.669378" height="519.213" rx="0.334689" transform="matrix(0.982904 0.184121 -0.182742 0.983161 571.115 -105.025)" fill="white" fill-opacity="0.23"/>
<rect width="0.669378" height="519.213" rx="0.334689" transform="matrix(0.982904 0.184121 -0.182742 0.983161 552.316 -108.546)" fill="white" fill-opacity="0.23"/>
<rect width="0.669378" height="519.213" rx="0.334689" transform="matrix(0.982904 0.184121 -0.182742 0.983161 574.873 -104.321)" fill="white" fill-opacity="0.23"/>
<rect width="0.669378" height="519.213" rx="0.334689" transform="matrix(0.982904 0.184121 -0.182742 0.983161 556.078 -107.842)" fill="white" fill-opacity="0.23"/>
<rect width="0.669378" height="519.213" rx="0.334689" transform="matrix(0.982904 0.184121 -0.182742 0.983161 578.639 -103.617)" fill="white" fill-opacity="0.23"/>
<rect width="0.669378" height="519.213" rx="0.334689" transform="matrix(0.982904 0.184121 -0.182742 0.983161 559.836 -107.138)" fill="white" fill-opacity="0.23"/>
<rect width="0.669378" height="519.213" rx="0.334689" transform="matrix(0.982904 0.184121 -0.182742 0.983161 582.396 -102.912)" fill="white" fill-opacity="0.23"/>
<rect width="0.669378" height="519.213" rx="0.334689" transform="matrix(0.982904 0.184121 -0.182742 0.983161 563.594 -106.434)" fill="white" fill-opacity="0.23"/>
<rect width="0.669378" height="519.213" rx="0.334689" transform="matrix(0.982904 0.184121 -0.182742 0.983161 586.152 -102.208)" fill="white" fill-opacity="0.23"/>
<rect width="0.669378" height="519.213" rx="0.334689" transform="matrix(0.982904 0.184121 -0.182742 0.983161 589.918 -101.504)" fill="white" fill-opacity="0.23"/>
<rect width="0.669378" height="519.213" rx="0.334689" transform="matrix(0.982904 0.184121 -0.182742 0.983161 612.469 -97.2779)" fill="white" fill-opacity="0.23"/>
<rect width="0.669378" height="519.213" rx="0.334689" transform="matrix(0.982904 0.184121 -0.182742 0.983161 593.674 -100.799)" fill="white" fill-opacity="0.23"/>
<rect width="0.669378" height="519.213" rx="0.334689" transform="matrix(0.982904 0.184121 -0.182742 0.983161 616.234 -96.5738)" fill="white" fill-opacity="0.23"/>
<rect width="0.669378" height="519.213" rx="0.334689" transform="matrix(0.982904 0.184121 -0.182742 0.983161 597.433 -100.095)" fill="white" fill-opacity="0.23"/>
<rect width="0.669378" height="519.213" rx="0.334689" transform="matrix(0.982904 0.184121 -0.182742 0.983161 619.992 -95.8696)" fill="white" fill-opacity="0.23"/>
<rect width="0.669378" height="519.213" rx="0.334689" transform="matrix(0.982904 0.184121 -0.182742 0.983161 601.189 -99.391)" fill="white" fill-opacity="0.23"/>
<rect width="0.669378" height="519.213" rx="0.334689" transform="matrix(0.982904 0.184121 -0.182742 0.983161 623.748 -95.1653)" fill="white" fill-opacity="0.23"/>
<rect width="0.669378" height="519.213" rx="0.334689" transform="matrix(0.982904 0.184121 -0.182742 0.983161 604.955 -98.6865)" fill="white" fill-opacity="0.23"/>
<rect width="0.669378" height="519.213" rx="0.334689" transform="matrix(0.982904 0.184121 -0.182742 0.983161 627.513 -94.4608)" fill="white" fill-opacity="0.23"/>
<rect width="0.669378" height="519.213" rx="0.334689" transform="matrix(0.982904 0.184121 -0.182742 0.983161 608.711 -97.9822)" fill="white" fill-opacity="0.23"/>
<rect width="0.669378" height="519.213" rx="0.334689" transform="matrix(0.982904 0.184121 -0.182742 0.983161 631.271 -93.7567)" fill="white" fill-opacity="0.23"/>
<rect width="0.669378" height="519.213" rx="0.334689" transform="matrix(0.982904 0.184121 -0.182742 0.983161 657.57 -213.579)" fill="white" fill-opacity="0.23"/>
<rect width="0.669378" height="519.213" rx="0.334689" transform="matrix(0.982904 0.184121 -0.182742 0.983161 680.128 -209.353)" fill="white" fill-opacity="0.23"/>
<rect width="0.669378" height="519.213" rx="0.334689" transform="matrix(0.982904 0.184121 -0.182742 0.983161 661.326 -212.874)" fill="white" fill-opacity="0.23"/>
<rect width="0.669378" height="519.213" rx="0.334689" transform="matrix(0.982904 0.184121 -0.182742 0.983161 683.884 -208.649)" fill="white" fill-opacity="0.23"/>
<rect width="0.669378" height="519.213" rx="0.334689" transform="matrix(0.982904 0.184121 -0.182742 0.983161 665.091 -212.17)" fill="white" fill-opacity="0.23"/>
<rect width="0.669378" height="519.213" rx="0.334689" transform="matrix(0.982904 0.184121 -0.182742 0.983161 687.65 -207.945)" fill="white" fill-opacity="0.23"/>
<rect width="0.669378" height="519.213" rx="0.334689" transform="matrix(0.982904 0.184121 -0.182742 0.983161 668.849 -211.466)" fill="white" fill-opacity="0.23"/>
<rect width="0.669378" height="519.213" rx="0.334689" transform="matrix(0.982904 0.184121 -0.182742 0.983161 691.408 -207.24)" fill="white" fill-opacity="0.23"/>
<rect width="0.669378" height="519.213" rx="0.334689" transform="matrix(0.982904 0.184121 -0.182742 0.983161 672.607 -210.762)" fill="white" fill-opacity="0.23"/>
<rect width="0.669378" height="519.213" rx="0.334689" transform="matrix(0.982904 0.184121 -0.182742 0.983161 695.166 -206.536)" fill="white" fill-opacity="0.23"/>
<rect width="0.669378" height="519.213" rx="0.334689" transform="matrix(0.982904 0.184121 -0.182742 0.983161 676.369 -210.057)" fill="white" fill-opacity="0.23"/>
<rect width="0.669378" height="519.213" rx="0.334689" transform="matrix(0.982904 0.184121 -0.182742 0.983161 698.921 -205.832)" fill="white" fill-opacity="0.23"/>
<rect width="0.669378" height="519.213" rx="0.334689" transform="matrix(0.982904 0.184121 -0.182742 0.983161 702.689 -205.127)" fill="white" fill-opacity="0.23"/>
<rect width="0.669378" height="519.213" rx="0.334689" transform="matrix(0.982904 0.184121 -0.182742 0.983161 725.246 -200.902)" fill="white" fill-opacity="0.23"/>
<rect width="0.669378" height="519.213" rx="0.334689" transform="matrix(0.982904 0.184121 -0.182742 0.983161 706.445 -204.423)" fill="white" fill-opacity="0.23"/>
<rect width="0.669378" height="519.213" rx="0.334689" transform="matrix(0.982904 0.184121 -0.182742 0.983161 729.003 -200.198)" fill="white" fill-opacity="0.23"/>
<rect width="0.669378" height="519.213" rx="0.334689" transform="matrix(0.982904 0.184121 -0.182742 0.983161 710.203 -203.719)" fill="white" fill-opacity="0.23"/>
<rect width="0.669378" height="519.213" rx="0.334689" transform="matrix(0.982904 0.184121 -0.182742 0.983161 732.761 -199.493)" fill="white" fill-opacity="0.23"/>
<rect width="0.669378" height="519.213" rx="0.334689" transform="matrix(0.982904 0.184121 -0.182742 0.983161 713.966 -203.015)" fill="white" fill-opacity="0.23"/>
<rect width="0.669378" height="519.213" rx="0.334689" transform="matrix(0.982904 0.184121 -0.182742 0.983161 736.519 -198.789)" fill="white" fill-opacity="0.23"/>
<rect width="0.669378" height="519.213" rx="0.334689" transform="matrix(0.982904 0.184121 -0.182742 0.983161 717.724 -202.31)" fill="white" fill-opacity="0.23"/>
<rect width="0.669378" height="519.213" rx="0.334689" transform="matrix(0.982904 0.184121 -0.182742 0.983161 740.285 -198.085)" fill="white" fill-opacity="0.23"/>
<rect width="0.669378" height="519.213" rx="0.334689" transform="matrix(0.982904 0.184121 -0.182742 0.983161 721.482 -201.606)" fill="white" fill-opacity="0.23"/>
<rect width="0.669378" height="519.213" rx="0.334689" transform="matrix(0.982904 0.184121 -0.182742 0.983161 744.041 -197.38)" fill="white" fill-opacity="0.23"/>
<rect width="0.669378" height="519.213" rx="0.334689" transform="matrix(0.982904 0.184121 -0.182742 0.983161 747.8 -196.676)" fill="white" fill-opacity="0.23"/>
<rect width="0.669378" height="519.213" rx="0.334689" transform="matrix(0.982904 0.184121 -0.182742 0.983161 770.355 -192.451)" fill="white" fill-opacity="0.23"/>
<rect width="0.669378" height="519.213" rx="0.334689" transform="matrix(0.982904 0.184121 -0.182742 0.983161 751.562 -195.972)" fill="white" fill-opacity="0.23"/>
<rect width="0.669378" height="519.213" rx="0.334689" transform="matrix(0.982904 0.184121 -0.182742 0.983161 774.121 -191.746)" fill="white" fill-opacity="0.23"/>
<rect width="0.669378" height="519.213" rx="0.334689" transform="matrix(0.982904 0.184121 -0.182742 0.983161 755.32 -195.268)" fill="white" fill-opacity="0.23"/>
<rect width="0.669378" height="519.213" rx="0.334689" transform="matrix(0.982904 0.184121 -0.182742 0.983161 777.878 -191.042)" fill="white" fill-opacity="0.23"/>
<rect width="0.669378" height="519.213" rx="0.334689" transform="matrix(0.982904 0.184121 -0.182742 0.983161 759.08 -194.563)" fill="white" fill-opacity="0.23"/>
<rect width="0.669378" height="519.213" rx="0.334689" transform="matrix(0.982904 0.184121 -0.182742 0.983161 781.636 -190.338)" fill="white" fill-opacity="0.23"/>
<rect width="0.669378" height="519.213" rx="0.334689" transform="matrix(0.982904 0.184121 -0.182742 0.983161 762.839 -193.859)" fill="white" fill-opacity="0.23"/>
<rect width="0.669378" height="519.213" rx="0.334689" transform="matrix(0.982904 0.184121 -0.182742 0.983161 785.394 -189.634)" fill="white" fill-opacity="0.23"/>
<rect width="0.669378" height="519.213" rx="0.334689" transform="matrix(0.982904 0.184121 -0.182742 0.983161 766.599 -193.155)" fill="white" fill-opacity="0.23"/>
<rect width="0.669378" height="519.213" rx="0.334689" transform="matrix(0.982904 0.184121 -0.182742 0.983161 789.16 -188.929)" fill="white" fill-opacity="0.23"/>
<rect width="0.669378" height="519.213" rx="0.334689" transform="matrix(0.982904 0.184121 -0.182742 0.983161 792.916 -188.225)" fill="white" fill-opacity="0.23"/>
<rect width="0.669378" height="519.213" rx="0.334689" transform="matrix(0.982904 0.184121 -0.182742 0.983161 815.474 -184)" fill="white" fill-opacity="0.23"/>
<rect width="0.669378" height="519.213" rx="0.334689" transform="matrix(0.982904 0.184121 -0.182742 0.983161 796.675 -187.521)" fill="white" fill-opacity="0.23"/>
<rect width="0.669378" height="519.213" rx="0.334689" transform="matrix(0.982904 0.184121 -0.182742 0.983161 819.234 -183.295)" fill="white" fill-opacity="0.23"/>
<rect width="0.669378" height="519.213" rx="0.334689" transform="matrix(0.982904 0.184121 -0.182742 0.983161 800.437 -186.817)" fill="white" fill-opacity="0.23"/>
<rect width="0.669378" height="519.213" rx="0.334689" transform="matrix(0.982904 0.184121 -0.182742 0.983161 822.99 -182.591)" fill="white" fill-opacity="0.23"/>
<rect width="0.669378" height="519.213" rx="0.334689" transform="matrix(0.982904 0.184121 -0.182742 0.983161 804.195 -186.112)" fill="white" fill-opacity="0.23"/>
<rect width="0.669378" height="519.213" rx="0.334689" transform="matrix(0.982904 0.184121 -0.182742 0.983161 826.755 -181.887)" fill="white" fill-opacity="0.23"/>
<rect width="0.669378" height="519.213" rx="0.334689" transform="matrix(0.982904 0.184121 -0.182742 0.983161 807.955 -185.408)" fill="white" fill-opacity="0.23"/>
<rect width="0.669378" height="519.213" rx="0.334689" transform="matrix(0.982904 0.184121 -0.182742 0.983161 830.513 -181.182)" fill="white" fill-opacity="0.23"/>
<rect width="0.669378" height="519.213" rx="0.334689" transform="matrix(0.982904 0.184121 -0.182742 0.983161 811.716 -184.704)" fill="white" fill-opacity="0.23"/>
<rect width="0.669378" height="519.213" rx="0.334689" transform="matrix(0.982904 0.184121 -0.182742 0.983161 834.271 -180.478)" fill="white" fill-opacity="0.23"/>
<rect width="0.669378" height="519.213" rx="0.334689" transform="matrix(0.982904 0.184121 -0.182742 0.983161 838.033 -179.774)" fill="white" fill-opacity="0.23"/>
<rect width="0.669378" height="519.213" rx="0.334689" transform="matrix(0.982904 0.184121 -0.182742 0.983161 860.591 -175.548)" fill="white" fill-opacity="0.23"/>
<rect width="0.669378" height="519.213" rx="0.334689" transform="matrix(0.982904 0.184121 -0.182742 0.983161 841.794 -179.07)" fill="white" fill-opacity="0.23"/>
<rect width="0.669378" height="519.213" rx="0.334689" transform="matrix(0.982904 0.184121 -0.182742 0.983161 864.349 -174.844)" fill="white" fill-opacity="0.23"/>
<rect width="0.669378" height="519.213" rx="0.334689" transform="matrix(0.982904 0.184121 -0.182742 0.983161 845.55 -178.365)" fill="white" fill-opacity="0.23"/>
<rect width="0.669378" height="519.213" rx="0.334689" transform="matrix(0.982904 0.184121 -0.182742 0.983161 868.109 -174.14)" fill="white" fill-opacity="0.23"/>
<rect width="0.669378" height="519.213" rx="0.334689" transform="matrix(0.982904 0.184121 -0.182742 0.983161 849.312 -177.661)" fill="white" fill-opacity="0.23"/>
<rect width="0.669378" height="519.213" rx="0.334689" transform="matrix(0.982904 0.184121 -0.182742 0.983161 871.865 -173.435)" fill="white" fill-opacity="0.23"/>
<rect width="0.669378" height="519.213" rx="0.334689" transform="matrix(0.982904 0.184121 -0.182742 0.983161 853.07 -176.957)" fill="white" fill-opacity="0.23"/>
<rect width="0.669378" height="519.213" rx="0.334689" transform="matrix(0.982904 0.184121 -0.182742 0.983161 875.628 -172.731)" fill="white" fill-opacity="0.23"/>
<rect width="0.669378" height="519.213" rx="0.334689" transform="matrix(0.982904 0.184121 -0.182742 0.983161 856.828 -176.252)" fill="white" fill-opacity="0.23"/>
<rect width="0.669378" height="519.213" rx="0.334689" transform="matrix(0.982904 0.184121 -0.182742 0.983161 879.388 -172.027)" fill="white" fill-opacity="0.23"/>
<rect width="0.669378" height="519.213" rx="0.334689" transform="matrix(0.982904 0.184121 -0.182742 0.983161 883.146 -171.323)" fill="white" fill-opacity="0.23"/>
<rect width="0.669378" height="519.213" rx="0.334689" transform="matrix(0.982904 0.184121 -0.182742 0.983161 905.705 -167.097)" fill="white" fill-opacity="0.23"/>
<rect width="0.669378" height="519.213" rx="0.334689" transform="matrix(0.982904 0.184121 -0.182742 0.983161 886.908 -170.618)" fill="white" fill-opacity="0.23"/>
<rect width="0.669378" height="519.213" rx="0.334689" transform="matrix(0.982904 0.184121 -0.182742 0.983161 909.464 -166.393)" fill="white" fill-opacity="0.23"/>
<rect width="0.669378" height="519.213" rx="0.334689" transform="matrix(0.982904 0.184121 -0.182742 0.983161 890.667 -169.914)" fill="white" fill-opacity="0.23"/>
<rect width="0.669378" height="519.213" rx="0.334689" transform="matrix(0.982904 0.184121 -0.182742 0.983161 913.228 -165.689)" fill="white" fill-opacity="0.23"/>
<rect width="0.669378" height="519.213" rx="0.334689" transform="matrix(0.982904 0.184121 -0.182742 0.983161 894.425 -169.21)" fill="white" fill-opacity="0.23"/>
<rect width="0.669378" height="519.213" rx="0.334689" transform="matrix(0.982904 0.184121 -0.182742 0.983161 916.984 -164.984)" fill="white" fill-opacity="0.23"/>
<rect width="0.669378" height="519.213" rx="0.334689" transform="matrix(0.982904 0.184121 -0.182742 0.983161 898.187 -168.506)" fill="white" fill-opacity="0.23"/>
<rect width="0.669378" height="519.213" rx="0.334689" transform="matrix(0.982904 0.184121 -0.182742 0.983161 920.742 -164.28)" fill="white" fill-opacity="0.23"/>
<rect width="0.669378" height="519.213" rx="0.334689" transform="matrix(0.982904 0.184121 -0.182742 0.983161 901.947 -167.801)" fill="white" fill-opacity="0.23"/>
<rect width="0.669378" height="519.213" rx="0.334689" transform="matrix(0.982904 0.184121 -0.182742 0.983161 924.503 -163.576)" fill="white" fill-opacity="0.23"/>
<rect width="0.669378" height="519.213" rx="0.334689" transform="matrix(0.982904 0.184121 -0.182742 0.983161 928.263 -162.872)" fill="white" fill-opacity="0.23"/>
<rect width="0.669378" height="519.213" rx="0.334689" transform="matrix(0.982904 0.184121 -0.182742 0.983161 950.822 -158.646)" fill="white" fill-opacity="0.23"/>
<rect width="0.669378" height="519.213" rx="0.334689" transform="matrix(0.982904 0.184121 -0.182742 0.983161 932.021 -162.167)" fill="white" fill-opacity="0.23"/>
<rect width="0.669378" height="519.213" rx="0.334689" transform="matrix(0.982904 0.184121 -0.182742 0.983161 954.58 -157.942)" fill="white" fill-opacity="0.23"/>
<rect width="0.669378" height="519.213" rx="0.334689" transform="matrix(0.982904 0.184121 -0.182742 0.983161 935.783 -161.463)" fill="white" fill-opacity="0.23"/>
<rect width="0.669378" height="519.213" rx="0.334689" transform="matrix(0.982904 0.184121 -0.182742 0.983161 958.335 -157.237)" fill="white" fill-opacity="0.23"/>
<rect width="0.669378" height="519.213" rx="0.334689" transform="matrix(0.982904 0.184121 -0.182742 0.983161 939.542 -160.759)" fill="white" fill-opacity="0.23"/>
<rect width="0.669378" height="519.213" rx="0.334689" transform="matrix(0.982904 0.184121 -0.182742 0.983161 962.101 -156.533)" fill="white" fill-opacity="0.23"/>
<rect width="0.669378" height="519.213" rx="0.334689" transform="matrix(0.982904 0.184121 -0.182742 0.983161 943.298 -160.054)" fill="white" fill-opacity="0.23"/>
<rect width="0.669378" height="519.213" rx="0.334689" transform="matrix(0.982904 0.184121 -0.182742 0.983161 965.859 -155.829)" fill="white" fill-opacity="0.23"/>
<rect width="0.669378" height="519.213" rx="0.334689" transform="matrix(0.982904 0.184121 -0.182742 0.983161 947.062 -159.35)" fill="white" fill-opacity="0.23"/>
<rect width="0.669378" height="519.213" rx="0.334689" transform="matrix(0.982904 0.184121 -0.182742 0.983161 969.617 -155.125)" fill="white" fill-opacity="0.23"/>
<rect width="0.669378" height="519.213" rx="0.334689" transform="matrix(0.982904 0.184121 -0.182742 0.983161 973.38 -154.42)" fill="white" fill-opacity="0.23"/>
<rect width="0.669378" height="519.213" rx="0.334689" transform="matrix(0.982904 0.184121 -0.182742 0.983161 995.935 -150.195)" fill="white" fill-opacity="0.23"/>
<rect width="0.669378" height="519.213" rx="0.334689" transform="matrix(0.982904 0.184121 -0.182742 0.983161 977.138 -153.716)" fill="white" fill-opacity="0.23"/>
<rect width="0.669378" height="519.213" rx="0.334689" transform="matrix(0.982904 0.184121 -0.182742 0.983161 999.699 -149.491)" fill="white" fill-opacity="0.23"/>
<rect width="0.669378" height="519.213" rx="0.334689" transform="matrix(0.982904 0.184121 -0.182742 0.983161 980.896 -153.012)" fill="white" fill-opacity="0.23"/>
<rect width="0.669378" height="519.213" rx="0.334689" transform="matrix(0.982904 0.184121 -0.182742 0.983161 1003.45 -148.786)" fill="white" fill-opacity="0.23"/>
<rect width="0.669378" height="519.213" rx="0.334689" transform="matrix(0.982904 0.184121 -0.182742 0.983161 984.66 -152.308)" fill="white" fill-opacity="0.23"/>
<rect width="0.669378" height="519.213" rx="0.334689" transform="matrix(0.982904 0.184121 -0.182742 0.983161 1007.21 -148.082)" fill="white" fill-opacity="0.23"/>
<rect width="0.669378" height="519.213" rx="0.334689" transform="matrix(0.982904 0.184121 -0.182742 0.983161 988.417 -151.603)" fill="white" fill-opacity="0.23"/>
<rect width="0.669378" height="519.213" rx="0.334689" transform="matrix(0.982904 0.184121 -0.182742 0.983161 1010.98 -147.378)" fill="white" fill-opacity="0.23"/>
<rect width="0.669378" height="519.213" rx="0.334689" transform="matrix(0.982904 0.184121 -0.182742 0.983161 992.175 -150.899)" fill="white" fill-opacity="0.23"/>
<rect width="0.669378" height="519.213" rx="0.334689" transform="matrix(0.982904 0.184121 -0.182742 0.983161 1014.73 -146.673)" fill="white" fill-opacity="0.23"/>
<rect width="0.669378" height="519.213" rx="0.334689" transform="matrix(0.982904 0.184121 -0.182742 0.983161 1018.01 -146.061)" fill="white" fill-opacity="0.23"/>
<rect width="0.669378" height="519.213" rx="0.334689" transform="matrix(0.982904 0.184121 -0.182742 0.983161 1040.56 -141.835)" fill="white" fill-opacity="0.23"/>
<rect width="0.669378" height="519.213" rx="0.334689" transform="matrix(0.982904 0.184121 -0.182742 0.983161 1021.76 -145.356)" fill="white" fill-opacity="0.23"/>
<rect width="0.669378" height="519.213" rx="0.334689" transform="matrix(0.982904 0.184121 -0.182742 0.983161 1044.32 -141.131)" fill="white" fill-opacity="0.23"/>
<rect width="0.669378" height="519.213" rx="0.334689" transform="matrix(0.982904 0.184121 -0.182742 0.983161 1025.52 -144.652)" fill="white" fill-opacity="0.23"/>
<rect width="0.669378" height="519.213" rx="0.334689" transform="matrix(0.982904 0.184121 -0.182742 0.983161 1048.08 -140.427)" fill="white" fill-opacity="0.23"/>
<rect width="0.669378" height="519.213" rx="0.334689" transform="matrix(0.982904 0.184121 -0.182742 0.983161 1029.29 -143.948)" fill="white" fill-opacity="0.23"/>
<rect width="0.669378" height="519.213" rx="0.334689" transform="matrix(0.982904 0.184121 -0.182742 0.983161 1051.85 -139.722)" fill="white" fill-opacity="0.23"/>
<rect width="0.669378" height="519.213" rx="0.334689" transform="matrix(0.982904 0.184121 -0.182742 0.983161 1033.04 -143.244)" fill="white" fill-opacity="0.23"/>
<rect width="0.669378" height="519.213" rx="0.334689" transform="matrix(0.982904 0.184121 -0.182742 0.983161 1055.6 -139.018)" fill="white" fill-opacity="0.23"/>
<rect width="0.669378" height="519.213" rx="0.334689" transform="matrix(0.982904 0.184121 -0.182742 0.983161 1036.8 -142.539)" fill="white" fill-opacity="0.23"/>
<rect width="0.669378" height="519.213" rx="0.334689" transform="matrix(0.982904 0.184121 -0.182742 0.983161 1059.36 -138.314)" fill="white" fill-opacity="0.23"/>
<rect width="0.669378" height="519.213" rx="0.334689" transform="matrix(0.982904 0.184121 -0.182742 0.983161 1063.12 -137.61)" fill="white" fill-opacity="0.23"/>
<rect width="0.669378" height="519.213" rx="0.334689" transform="matrix(0.982904 0.184121 -0.182742 0.983161 1085.68 -133.384)" fill="white" fill-opacity="0.23"/>
<rect width="0.669378" height="519.213" rx="0.334689" transform="matrix(0.982904 0.184121 -0.182742 0.983161 1066.88 -136.905)" fill="white" fill-opacity="0.23"/>
<rect width="0.669378" height="519.213" rx="0.334689" transform="matrix(0.982904 0.184121 -0.182742 0.983161 1089.44 -132.68)" fill="white" fill-opacity="0.23"/>
<rect width="0.669378" height="519.213" rx="0.334689" transform="matrix(0.982904 0.184121 -0.182742 0.983161 1070.64 -136.201)" fill="white" fill-opacity="0.23"/>
<rect width="0.669378" height="519.213" rx="0.334689" transform="matrix(0.982904 0.184121 -0.182742 0.983161 1093.2 -131.975)" fill="white" fill-opacity="0.23"/>
<rect width="0.669378" height="519.213" rx="0.334689" transform="matrix(0.982904 0.184121 -0.182742 0.983161 1074.4 -135.497)" fill="white" fill-opacity="0.23"/>
<rect width="0.669378" height="519.213" rx="0.334689" transform="matrix(0.982904 0.184121 -0.182742 0.983161 1096.96 -131.271)" fill="white" fill-opacity="0.23"/>
<rect width="0.669378" height="519.213" rx="0.334689" transform="matrix(0.982904 0.184121 -0.182742 0.983161 1078.16 -134.792)" fill="white" fill-opacity="0.23"/>
<rect width="0.669378" height="519.213" rx="0.334689" transform="matrix(0.982904 0.184121 -0.182742 0.983161 1100.72 -130.567)" fill="white" fill-opacity="0.23"/>
<rect width="0.669378" height="519.213" rx="0.334689" transform="matrix(0.982904 0.184121 -0.182742 0.983161 1081.92 -134.088)" fill="white" fill-opacity="0.23"/>
<rect width="0.669378" height="519.213" rx="0.334689" transform="matrix(0.982904 0.184121 -0.182742 0.983161 1104.48 -129.863)" fill="white" fill-opacity="0.23"/>
<rect width="0.669378" height="519.213" rx="0.334689" transform="matrix(0.982904 0.184121 -0.182742 0.983161 1108.24 -129.158)" fill="white" fill-opacity="0.23"/>
<rect width="0.669378" height="519.213" rx="0.334689" transform="matrix(0.982904 0.184121 -0.182742 0.983161 1130.79 -124.933)" fill="white" fill-opacity="0.23"/>
<rect width="0.669378" height="519.213" rx="0.334689" transform="matrix(0.982904 0.184121 -0.182742 0.983161 1112 -128.454)" fill="white" fill-opacity="0.23"/>
<rect width="0.669378" height="519.213" rx="0.334689" transform="matrix(0.982904 0.184121 -0.182742 0.983161 1134.55 -124.229)" fill="white" fill-opacity="0.23"/>
<rect width="0.669378" height="519.213" rx="0.334689" transform="matrix(0.982904 0.184121 -0.182742 0.983161 1115.76 -127.75)" fill="white" fill-opacity="0.23"/>
<rect width="0.669378" height="519.213" rx="0.334689" transform="matrix(0.982904 0.184121 -0.182742 0.983161 1138.32 -123.524)" fill="white" fill-opacity="0.23"/>
<rect width="0.669378" height="519.213" rx="0.334689" transform="matrix(0.982904 0.184121 -0.182742 0.983161 1119.52 -127.046)" fill="white" fill-opacity="0.23"/>
<rect width="0.669378" height="519.213" rx="0.334689" transform="matrix(0.982904 0.184121 -0.182742 0.983161 1142.07 -122.82)" fill="white" fill-opacity="0.23"/>
<rect width="0.669378" height="519.213" rx="0.334689" transform="matrix(0.982904 0.184121 -0.182742 0.983161 1123.28 -126.341)" fill="white" fill-opacity="0.23"/>
<rect width="0.669378" height="519.213" rx="0.334689" transform="matrix(0.982904 0.184121 -0.182742 0.983161 1145.83 -122.116)" fill="white" fill-opacity="0.23"/>
<rect width="0.669378" height="519.213" rx="0.334689" transform="matrix(0.982904 0.184121 -0.182742 0.983161 1127.03 -125.637)" fill="white" fill-opacity="0.23"/>
<rect width="0.669378" height="519.213" rx="0.334689" transform="matrix(0.982904 0.184121 -0.182742 0.983161 1149.6 -121.411)" fill="white" fill-opacity="0.23"/>
<rect width="0.669378" height="519.213" rx="0.334689" transform="matrix(0.982904 0.184121 -0.182742 0.983161 1153.35 -120.707)" fill="white" fill-opacity="0.23"/>
<rect width="0.669378" height="519.213" rx="0.334689" transform="matrix(0.982904 0.184121 -0.182742 0.983161 1175.91 -116.482)" fill="white" fill-opacity="0.23"/>
<rect width="0.669378" height="519.213" rx="0.334689" transform="matrix(0.982904 0.184121 -0.182742 0.983161 1157.11 -120.003)" fill="white" fill-opacity="0.23"/>
<rect width="0.669378" height="519.213" rx="0.334689" transform="matrix(0.982904 0.184121 -0.182742 0.983161 1179.67 -115.777)" fill="white" fill-opacity="0.23"/>
<rect width="0.669378" height="519.213" rx="0.334689" transform="matrix(0.982904 0.184121 -0.182742 0.983161 1160.87 -119.299)" fill="white" fill-opacity="0.23"/>
<rect width="0.669378" height="519.213" rx="0.334689" transform="matrix(0.982904 0.184121 -0.182742 0.983161 1183.43 -115.073)" fill="white" fill-opacity="0.23"/>
<rect width="0.669378" height="519.213" rx="0.334689" transform="matrix(0.982904 0.184121 -0.182742 0.983161 1164.63 -118.594)" fill="white" fill-opacity="0.23"/>
<rect width="0.669378" height="519.213" rx="0.334689" transform="matrix(0.982904 0.184121 -0.182742 0.983161 1187.19 -114.369)" fill="white" fill-opacity="0.23"/>
<rect width="0.669378" height="519.213" rx="0.334689" transform="matrix(0.982904 0.184121 -0.182742 0.983161 1168.39 -117.89)" fill="white" fill-opacity="0.23"/>
<rect width="0.669378" height="519.213" rx="0.334689" transform="matrix(0.982904 0.184121 -0.182742 0.983161 1190.95 -113.665)" fill="white" fill-opacity="0.23"/>
<rect width="0.669378" height="519.213" rx="0.334689" transform="matrix(0.982904 0.184121 -0.182742 0.983161 1172.15 -117.186)" fill="white" fill-opacity="0.23"/>
<rect width="0.669378" height="519.213" rx="0.334689" transform="matrix(0.982904 0.184121 -0.182742 0.983161 1194.71 -112.96)" fill="white" fill-opacity="0.23"/>
<rect width="0.669378" height="519.213" rx="0.334689" transform="matrix(0.982904 0.184121 -0.182742 0.983161 1198.47 -112.256)" fill="white" fill-opacity="0.23"/>
<rect width="0.669378" height="519.213" rx="0.334689" transform="matrix(0.982904 0.184121 -0.182742 0.983161 1221.02 -108.03)" fill="white" fill-opacity="0.23"/>
<rect width="0.669378" height="519.213" rx="0.334689" transform="matrix(0.982904 0.184121 -0.182742 0.983161 1202.23 -111.552)" fill="white" fill-opacity="0.23"/>
<rect width="0.669378" height="519.213" rx="0.334689" transform="matrix(0.982904 0.184121 -0.182742 0.983161 1224.79 -107.326)" fill="white" fill-opacity="0.23"/>
<rect width="0.669378" height="519.213" rx="0.334689" transform="matrix(0.982904 0.184121 -0.182742 0.983161 1205.99 -110.847)" fill="white" fill-opacity="0.23"/>
<rect width="0.669378" height="519.213" rx="0.334689" transform="matrix(0.982904 0.184121 -0.182742 0.983161 1228.54 -106.622)" fill="white" fill-opacity="0.23"/>
<rect width="0.669378" height="519.213" rx="0.334689" transform="matrix(0.982904 0.184121 -0.182742 0.983161 1209.75 -110.143)" fill="white" fill-opacity="0.23"/>
<rect width="0.669378" height="519.213" rx="0.334689" transform="matrix(0.982904 0.184121 -0.182742 0.983161 1232.3 -105.917)" fill="white" fill-opacity="0.23"/>
<rect width="0.669378" height="519.213" rx="0.334689" transform="matrix(0.982904 0.184121 -0.182742 0.983161 1213.51 -109.439)" fill="white" fill-opacity="0.23"/>
<rect width="0.669378" height="519.213" rx="0.334689" transform="matrix(0.982904 0.184121 -0.182742 0.983161 1236.07 -105.213)" fill="white" fill-opacity="0.23"/>
<rect width="0.669378" height="519.213" rx="0.334689" transform="matrix(0.982904 0.184121 -0.182742 0.983161 1217.27 -108.735)" fill="white" fill-opacity="0.23"/>
<rect width="0.669378" height="519.213" rx="0.334689" transform="matrix(0.982904 0.184121 -0.182742 0.983161 1239.83 -104.509)" fill="white" fill-opacity="0.23"/>
<rect width="0.669378" height="519.213" rx="0.334689" transform="matrix(0.982904 0.184121 -0.182742 0.983161 1243.58 -103.805)" fill="white" fill-opacity="0.23"/>
<rect width="0.669378" height="519.213" rx="0.334689" transform="matrix(0.982904 0.184121 -0.182742 0.983161 1266.14 -99.5791)" fill="white" fill-opacity="0.23"/>
<rect width="0.669378" height="519.213" rx="0.334689" transform="matrix(0.982904 0.184121 -0.182742 0.983161 1247.34 -103.1)" fill="white" fill-opacity="0.23"/>
<rect width="0.669378" height="519.213" rx="0.334689" transform="matrix(0.982904 0.184121 -0.182742 0.983161 1269.9 -98.8749)" fill="white" fill-opacity="0.23"/>
<rect width="0.669378" height="519.213" rx="0.334689" transform="matrix(0.982904 0.184121 -0.182742 0.983161 1251.1 -102.396)" fill="white" fill-opacity="0.23"/>
<rect width="0.669378" height="519.213" rx="0.334689" transform="matrix(0.982904 0.184121 -0.182742 0.983161 1273.66 -98.1707)" fill="white" fill-opacity="0.23"/>
<rect width="0.669378" height="519.213" rx="0.334689" transform="matrix(0.982904 0.184121 -0.182742 0.983161 1254.86 -101.692)" fill="white" fill-opacity="0.23"/>
<rect width="0.669378" height="519.213" rx="0.334689" transform="matrix(0.982904 0.184121 -0.182742 0.983161 1277.42 -97.4663)" fill="white" fill-opacity="0.23"/>
<rect width="0.669378" height="519.213" rx="0.334689" transform="matrix(0.982904 0.184121 -0.182742 0.983161 1258.62 -100.988)" fill="white" fill-opacity="0.23"/>
<rect width="0.669378" height="519.213" rx="0.334689" transform="matrix(0.982904 0.184121 -0.182742 0.983161 1281.18 -96.7621)" fill="white" fill-opacity="0.23"/>
<rect width="0.669378" height="519.213" rx="0.334689" transform="matrix(0.982904 0.184121 -0.182742 0.983161 1262.38 -100.283)" fill="white" fill-opacity="0.23"/>
<rect width="0.669378" height="519.213" rx="0.334689" transform="matrix(0.982904 0.184121 -0.182742 0.983161 1284.94 -96.0579)" fill="white" fill-opacity="0.23"/>
<rect width="0.669378" height="519.213" rx="0.334689" transform="matrix(0.982904 0.184121 -0.182742 0.983161 1288.7 -95.3538)" fill="white" fill-opacity="0.23"/>
<rect width="0.669378" height="519.213" rx="0.334689" transform="matrix(0.982904 0.184121 -0.182742 0.983161 1311.26 -91.1281)" fill="white" fill-opacity="0.23"/>
<rect width="0.669378" height="519.213" rx="0.334689" transform="matrix(0.982904 0.184121 -0.182742 0.983161 1292.46 -94.6494)" fill="white" fill-opacity="0.23"/>
<rect width="0.669378" height="519.213" rx="0.334689" transform="matrix(0.982904 0.184121 -0.182742 0.983161 1315.02 -90.4237)" fill="white" fill-opacity="0.23"/>
<rect width="0.669378" height="519.213" rx="0.334689" transform="matrix(0.982904 0.184121 -0.182742 0.983161 1296.22 -93.9452)" fill="white" fill-opacity="0.23"/>
<rect width="0.669378" height="519.213" rx="0.334689" transform="matrix(0.982904 0.184121 -0.182742 0.983161 1318.77 -89.7195)" fill="white" fill-opacity="0.23"/>
<rect width="0.669378" height="519.213" rx="0.334689" transform="matrix(0.982904 0.184121 -0.182742 0.983161 1299.98 -93.241)" fill="white" fill-opacity="0.23"/>
<rect width="0.669378" height="519.213" rx="0.334689" transform="matrix(0.982904 0.184121 -0.182742 0.983161 1322.54 -89.0154)" fill="white" fill-opacity="0.23"/>
<rect width="0.669378" height="519.213" rx="0.334689" transform="matrix(0.982904 0.184121 -0.182742 0.983161 1303.74 -92.5364)" fill="white" fill-opacity="0.23"/>
<rect width="0.669378" height="519.213" rx="0.334689" transform="matrix(0.982904 0.184121 -0.182742 0.983161 1326.3 -88.311)" fill="white" fill-opacity="0.23"/>
<rect width="0.669378" height="519.213" rx="0.334689" transform="matrix(0.982904 0.184121 -0.182742 0.983161 1307.49 -91.8323)" fill="white" fill-opacity="0.23"/>
<rect width="0.669378" height="519.213" rx="0.334689" transform="matrix(0.982904 0.184121 -0.182742 0.983161 1330.05 -87.6067)" fill="white" fill-opacity="0.23"/>
<rect width="0.669378" height="519.213" rx="0.334689" transform="matrix(0.982904 0.184121 -0.182742 0.983161 1333.82 -86.9023)" fill="white" fill-opacity="0.23"/>
<rect width="0.669378" height="519.213" rx="0.334689" transform="matrix(0.982904 0.184121 -0.182742 0.983161 1356.37 -82.6768)" fill="white" fill-opacity="0.23"/>
<rect width="0.669378" height="519.213" rx="0.334689" transform="matrix(0.982904 0.184121 -0.182742 0.983161 1337.57 -86.1981)" fill="white" fill-opacity="0.23"/>
<rect width="0.669378" height="519.213" rx="0.334689" transform="matrix(0.982904 0.184121 -0.182742 0.983161 1360.13 -81.9727)" fill="white" fill-opacity="0.23"/>
<rect width="0.669378" height="519.213" rx="0.334689" transform="matrix(0.982904 0.184121 -0.182742 0.983161 1341.33 -85.4941)" fill="white" fill-opacity="0.23"/>
<rect width="0.669378" height="519.213" rx="0.334689" transform="matrix(0.982904 0.184121 -0.182742 0.983161 1363.89 -81.2682)" fill="white" fill-opacity="0.23"/>
<rect width="0.669378" height="519.213" rx="0.334689" transform="matrix(0.982904 0.184121 -0.182742 0.983161 1345.09 -84.7897)" fill="white" fill-opacity="0.23"/>
<rect width="0.669378" height="519.213" rx="0.334689" transform="matrix(0.982904 0.184121 -0.182742 0.983161 1367.65 -80.5641)" fill="white" fill-opacity="0.23"/>
<rect width="0.669378" height="519.213" rx="0.334689" transform="matrix(0.982904 0.184121 -0.182742 0.983161 1348.85 -84.0854)" fill="white" fill-opacity="0.23"/>
<rect width="0.669378" height="519.213" rx="0.334689" transform="matrix(0.982904 0.184121 -0.182742 0.983161 1371.41 -79.8599)" fill="white" fill-opacity="0.23"/>
<rect width="0.669378" height="519.213" rx="0.334689" transform="matrix(0.982904 0.184121 -0.182742 0.983161 1352.61 -83.3811)" fill="white" fill-opacity="0.23"/>
<rect width="0.669378" height="519.213" rx="0.334689" transform="matrix(0.982904 0.184121 -0.182742 0.983161 1375.17 -79.1556)" fill="white" fill-opacity="0.23"/>
<rect width="0.669378" height="519.213" rx="0.334689" transform="matrix(0.982904 0.184121 -0.182742 0.983161 1378.8 -77.7589)" fill="white" fill-opacity="0.23"/>
<rect width="0.669378" height="519.213" rx="0.334689" transform="matrix(0.982904 0.184121 -0.182742 0.983161 1401.36 -73.5331)" fill="white" fill-opacity="0.23"/>
<rect width="0.669378" height="519.213" rx="0.334689" transform="matrix(0.982904 0.184121 -0.182742 0.983161 1382.55 -77.0545)" fill="white" fill-opacity="0.23"/>
<rect width="0.669378" height="519.213" rx="0.334689" transform="matrix(0.982904 0.184121 -0.182742 0.983161 1405.11 -72.8289)" fill="white" fill-opacity="0.23"/>
<rect width="0.669378" height="519.213" rx="0.334689" transform="matrix(0.982904 0.184121 -0.182742 0.983161 1386.32 -76.3501)" fill="white" fill-opacity="0.23"/>
<rect width="0.669378" height="519.213" rx="0.334689" transform="matrix(0.982904 0.184121 -0.182742 0.983161 1408.87 -72.1248)" fill="white" fill-opacity="0.23"/>
<rect width="0.669378" height="519.213" rx="0.334689" transform="matrix(0.982904 0.184121 -0.182742 0.983161 1390.08 -75.646)" fill="white" fill-opacity="0.23"/>
<rect width="0.669378" height="519.213" rx="0.334689" transform="matrix(0.982904 0.184121 -0.182742 0.983161 1412.64 -71.4204)" fill="white" fill-opacity="0.23"/>
<rect width="0.669378" height="519.213" rx="0.334689" transform="matrix(0.982904 0.184121 -0.182742 0.983161 1393.84 -74.9417)" fill="white" fill-opacity="0.23"/>
<rect width="0.669378" height="519.213" rx="0.334689" transform="matrix(0.982904 0.184121 -0.182742 0.983161 1397.59 -74.2375)" fill="white" fill-opacity="0.23"/>
<rect width="0.669378" height="519.213" rx="0.334689" transform="matrix(0.982904 0.184121 -0.182742 0.983161 498.89 284.163)" fill="white" fill-opacity="0.23"/>
<rect width="0.669378" height="519.213" rx="0.334689" transform="matrix(0.982904 0.184121 -0.182742 0.983161 521.449 288.389)" fill="white" fill-opacity="0.23"/>
<rect width="0.669378" height="519.213" rx="0.334689" transform="matrix(0.982904 0.184121 -0.182742 0.983161 502.646 284.867)" fill="white" fill-opacity="0.23"/>
<rect width="0.669378" height="519.213" rx="0.334689" transform="matrix(0.982904 0.184121 -0.182742 0.983161 525.205 289.093)" fill="white" fill-opacity="0.23"/>
<rect width="0.669378" height="519.213" rx="0.334689" transform="matrix(0.982904 0.184121 -0.182742 0.983161 506.412 285.572)" fill="white" fill-opacity="0.23"/>
<rect width="0.669378" height="519.213" rx="0.334689" transform="matrix(0.982904 0.184121 -0.182742 0.983161 528.965 289.797)" fill="white" fill-opacity="0.23"/>
<rect width="0.669378" height="519.213" rx="0.334689" transform="matrix(0.982904 0.184121 -0.182742 0.983161 510.17 286.276)" fill="white" fill-opacity="0.23"/>
<rect width="0.669378" height="519.213" rx="0.334689" transform="matrix(0.982904 0.184121 -0.182742 0.983161 532.728 290.502)" fill="white" fill-opacity="0.23"/>
<rect width="0.669378" height="519.213" rx="0.334689" transform="matrix(0.982904 0.184121 -0.182742 0.983161 513.928 286.98)" fill="white" fill-opacity="0.23"/>
<rect width="0.669378" height="519.213" rx="0.334689" transform="matrix(0.982904 0.184121 -0.182742 0.983161 536.486 291.206)" fill="white" fill-opacity="0.23"/>
<rect width="0.669378" height="519.213" rx="0.334689" transform="matrix(0.982904 0.184121 -0.182742 0.983161 517.685 287.685)" fill="white" fill-opacity="0.23"/>
<rect width="0.669378" height="519.213" rx="0.334689" transform="matrix(0.982904 0.184121 -0.182742 0.983161 540.242 291.91)" fill="white" fill-opacity="0.23"/>
<rect width="0.669378" height="519.213" rx="0.334689" transform="matrix(0.982904 0.184121 -0.182742 0.983161 544.01 292.614)" fill="white" fill-opacity="0.23"/>
<rect width="0.669378" height="519.213" rx="0.334689" transform="matrix(0.982904 0.184121 -0.182742 0.983161 566.562 296.84)" fill="white" fill-opacity="0.23"/>
<rect width="0.669378" height="519.213" rx="0.334689" transform="matrix(0.982904 0.184121 -0.182742 0.983161 547.765 293.318)" fill="white" fill-opacity="0.23"/>
<rect width="0.669378" height="519.213" rx="0.334689" transform="matrix(0.982904 0.184121 -0.182742 0.983161 570.324 297.544)" fill="white" fill-opacity="0.23"/>
<rect width="0.669378" height="519.213" rx="0.334689" transform="matrix(0.982904 0.184121 -0.182742 0.983161 551.523 294.023)" fill="white" fill-opacity="0.23"/>
<rect width="0.669378" height="519.213" rx="0.334689" transform="matrix(0.982904 0.184121 -0.182742 0.983161 574.082 298.248)" fill="white" fill-opacity="0.23"/>
<rect width="0.669378" height="519.213" rx="0.334689" transform="matrix(0.982904 0.184121 -0.182742 0.983161 555.283 294.727)" fill="white" fill-opacity="0.23"/>
<rect width="0.669378" height="519.213" rx="0.334689" transform="matrix(0.982904 0.184121 -0.182742 0.983161 577.84 298.953)" fill="white" fill-opacity="0.23"/>
<rect width="0.669378" height="519.213" rx="0.334689" transform="matrix(0.982904 0.184121 -0.182742 0.983161 559.045 295.432)" fill="white" fill-opacity="0.23"/>
<rect width="0.669378" height="519.213" rx="0.334689" transform="matrix(0.982904 0.184121 -0.182742 0.983161 581.605 299.657)" fill="white" fill-opacity="0.23"/>
<rect width="0.669378" height="519.213" rx="0.334689" transform="matrix(0.982904 0.184121 -0.182742 0.983161 562.803 296.135)" fill="white" fill-opacity="0.23"/>
<rect width="0.669378" height="519.213" rx="0.334689" transform="matrix(0.982904 0.184121 -0.182742 0.983161 585.361 300.361)" fill="white" fill-opacity="0.23"/>
<rect width="0.669378" height="519.213" rx="0.334689" transform="matrix(0.982904 0.184121 -0.182742 0.983161 589.119 301.066)" fill="white" fill-opacity="0.23"/>
<rect width="0.669378" height="519.213" rx="0.334689" transform="matrix(0.982904 0.184121 -0.182742 0.983161 611.676 305.291)" fill="white" fill-opacity="0.23"/>
<rect width="0.669378" height="519.213" rx="0.334689" transform="matrix(0.982904 0.184121 -0.182742 0.983161 592.883 301.77)" fill="white" fill-opacity="0.23"/>
<rect width="0.669378" height="519.213" rx="0.334689" transform="matrix(0.982904 0.184121 -0.182742 0.983161 615.437 305.995)" fill="white" fill-opacity="0.23"/>
<rect width="0.669378" height="519.213" rx="0.334689" transform="matrix(0.982904 0.184121 -0.182742 0.983161 596.64 302.474)" fill="white" fill-opacity="0.23"/>
<rect width="0.669378" height="519.213" rx="0.334689" transform="matrix(0.982904 0.184121 -0.182742 0.983161 619.199 306.7)" fill="white" fill-opacity="0.23"/>
<rect width="0.669378" height="519.213" rx="0.334689" transform="matrix(0.982904 0.184121 -0.182742 0.983161 600.398 303.178)" fill="white" fill-opacity="0.23"/>
<rect width="0.669378" height="519.213" rx="0.334689" transform="matrix(0.982904 0.184121 -0.182742 0.983161 622.957 307.404)" fill="white" fill-opacity="0.23"/>
<rect width="0.669378" height="519.213" rx="0.334689" transform="matrix(0.982904 0.184121 -0.182742 0.983161 604.156 303.883)" fill="white" fill-opacity="0.23"/>
<rect width="0.669378" height="519.213" rx="0.334689" transform="matrix(0.982904 0.184121 -0.182742 0.983161 626.715 308.108)" fill="white" fill-opacity="0.23"/>
<rect width="0.669378" height="519.213" rx="0.334689" transform="matrix(0.982904 0.184121 -0.182742 0.983161 607.92 304.587)" fill="white" fill-opacity="0.23"/>
<rect width="0.669378" height="519.213" rx="0.334689" transform="matrix(0.982904 0.184121 -0.182742 0.983161 630.48 308.812)" fill="white" fill-opacity="0.23"/>
<rect width="0.669378" height="519.213" rx="0.334689" transform="matrix(0.982904 0.184121 -0.182742 0.983161 634.236 309.517)" fill="white" fill-opacity="0.23"/>
<rect width="0.669378" height="519.213" rx="0.334689" transform="matrix(0.982904 0.184121 -0.182742 0.983161 656.795 313.742)" fill="white" fill-opacity="0.23"/>
<rect width="0.669378" height="519.213" rx="0.334689" transform="matrix(0.982904 0.184121 -0.182742 0.983161 637.996 310.221)" fill="white" fill-opacity="0.23"/>
<rect width="0.669378" height="519.213" rx="0.334689" transform="matrix(0.982904 0.184121 -0.182742 0.983161 660.555 314.446)" fill="white" fill-opacity="0.23"/>
<rect width="0.669378" height="519.213" rx="0.334689" transform="matrix(0.982904 0.184121 -0.182742 0.983161 641.758 310.925)" fill="white" fill-opacity="0.23"/>
<rect width="0.669378" height="519.213" rx="0.334689" transform="matrix(0.982904 0.184121 -0.182742 0.983161 664.31 315.151)" fill="white" fill-opacity="0.23"/>
<rect width="0.669378" height="519.213" rx="0.334689" transform="matrix(0.982904 0.184121 -0.182742 0.983161 645.515 311.629)" fill="white" fill-opacity="0.23"/>
<rect width="0.669378" height="519.213" rx="0.334689" transform="matrix(0.982904 0.184121 -0.182742 0.983161 668.076 315.855)" fill="white" fill-opacity="0.23"/>
<rect width="0.669378" height="519.213" rx="0.334689" transform="matrix(0.982904 0.184121 -0.182742 0.983161 649.275 312.334)" fill="white" fill-opacity="0.23"/>
<rect width="0.669378" height="519.213" rx="0.334689" transform="matrix(0.982904 0.184121 -0.182742 0.983161 671.832 316.559)" fill="white" fill-opacity="0.23"/>
<rect width="0.669378" height="519.213" rx="0.334689" transform="matrix(0.982904 0.184121 -0.182742 0.983161 653.033 313.038)" fill="white" fill-opacity="0.23"/>
<rect width="0.669378" height="519.213" rx="0.334689" transform="matrix(0.982904 0.184121 -0.182742 0.983161 675.592 317.264)" fill="white" fill-opacity="0.23"/>
<rect width="0.669378" height="519.213" rx="0.334689" transform="matrix(0.982904 0.184121 -0.182742 0.983161 679.353 317.968)" fill="white" fill-opacity="0.23"/>
<rect width="0.669378" height="519.213" rx="0.334689" transform="matrix(0.982904 0.184121 -0.182742 0.983161 683.113 318.672)" fill="white" fill-opacity="0.23"/>
<rect width="0.669378" height="519.213" rx="0.334689" transform="matrix(0.982904 0.184121 -0.182742 0.983161 3.13257 316.043)" fill="white" fill-opacity="0.23"/>
<rect width="0.669378" height="519.213" rx="0.334689" transform="matrix(0.982904 0.184121 -0.182742 0.983161 6.88831 316.747)" fill="white" fill-opacity="0.23"/>
<rect width="0.669378" height="519.213" rx="0.334689" transform="matrix(0.982904 0.184121 -0.182742 0.983161 10.6539 317.451)" fill="white" fill-opacity="0.23"/>
<rect width="0.669378" height="519.213" rx="0.334689" transform="matrix(0.982904 0.184121 -0.182742 0.983161 14.4117 318.156)" fill="white" fill-opacity="0.23"/>
<rect width="0.669378" height="519.213" rx="0.334689" transform="matrix(0.982904 0.184121 -0.182742 0.983161 18.1696 318.86)" fill="white" fill-opacity="0.23"/>
<rect width="0.669378" height="519.213" rx="0.334689" transform="matrix(0.982904 0.184121 -0.182742 0.983161 -0.625366 315.339)" fill="white" fill-opacity="0.23"/>
</g>
</svg>
