<svg width="204" height="22" viewBox="0 0 204 22" fill="none" xmlns="http://www.w3.org/2000/svg">
<path d="M2.13717 12.3737C20.4649 12.0555 38.5109 10.7932 56.4539 5.739C57.0988 5.55733 66.0467 1.46404 62.6256 4.57167C58.4528 8.36205 54.2588 12.0588 50.5951 16.891C48.2077 20.0399 47.1571 20.6906 50.7025 19.8658C62.6057 17.0965 74.4902 14.2971 86.2079 10.1971C92.034 8.15853 109.283 0.817924 103.549 3.33105C100.726 4.56805 98.6332 9.10522 96.9546 12.2939C95.2244 15.5806 93.7185 17.9794 97.5386 17.0138C110.422 13.7575 123.337 10.5413 136.002 5.82578C137.199 5.38013 148.144 -0.989643 144.07 4.62553C141.297 8.44641 137.22 12.1902 135.56 17.3323C134.523 20.5472 139.519 18.2011 140.257 17.9439C153.89 13.1886 167.321 8.62671 181.27 5.85533C185.312 5.05239 191.653 3.4188 201.948 3.8014" stroke="#295956" stroke-width="3" stroke-linecap="round"/>
</svg>
